    <svg width="24" height="17" viewBox="0 0 24 17" fill="none" xmlns="http://www.w3.org/2000/svg">
<path d="M14.4425 1H4.66613C3.52733 1 2.95761 1 2.50846 1.18604C1.90959 1.43411 1.43411 1.91019 1.18604 2.50905C1 2.95821 1 3.52761 1 4.66641C3.02474 4.66641 4.66613 6.30721 4.66613 8.33201C4.66613 10.3567 3.02474 11.9984 1 11.9984C1 13.1372 1 13.7066 1.18604 14.1558C1.43411 14.7546 1.90959 15.2303 2.50846 15.4784C2.95761 15.6644 3.52733 15.6645 4.66613 15.6645H14.4425M14.4425 1H19.3306C20.4695 1 21.0388 1 21.488 1.18604C22.0868 1.43411 22.5626 1.91019 22.8106 2.50905C22.9966 2.9582 22.9966 3.52761 22.9966 4.66641C20.9718 4.66641 19.3306 6.30745 19.3306 8.33226C19.3306 10.3571 20.9718 11.9984 22.9966 11.9984C22.9966 13.1372 22.9966 13.7066 22.8106 14.1558C22.5626 14.7546 22.0868 15.2303 21.488 15.4784C21.0388 15.6644 20.4695 15.6645 19.3306 15.6645H14.4425M14.4425 1V15.6645" stroke="#1D61E7" stroke-width="2" stroke-linecap="round" stroke-linejoin="round"/>
</svg>
